<?xml version="1.0" encoding="iso-8859-1"?>
<!-- Uploaded to: SVG Repo, www.svgrepo.com, Generator: SVG Repo Mixer Tools -->
<svg height="800px" width="800px" version="1.1" id="Layer_1" xmlns="http://www.w3.org/2000/svg" xmlns:xlink="http://www.w3.org/1999/xlink" 
	 viewBox="0 0 512 512" xml:space="preserve">
<g>
	<path style="fill:#C97767;" d="M395.26,140.705H116.738c-13.756,0-24.908-11.152-24.908-24.908V98.79
		c0-13.756,11.152-24.908,24.908-24.908H395.26c13.756,0,24.908,11.152,24.908,24.908v17.008
		C420.167,129.554,409.016,140.705,395.26,140.705z"/>
	<path style="fill:#C97767;" d="M231.706,73.882h48.583c6.494-6.326,10.532-15.16,10.532-24.942
		c0.001-19.233-15.59-34.823-34.823-34.823s-34.824,15.592-34.824,34.824C221.175,58.722,225.214,67.556,231.706,73.882z"/>
</g>
<path style="fill:#6FBBDC;" d="M384.705,191.326v-50.62H127.292v49.529v0.823c-26.046,0-47.16,21.381-47.16,47.427v230.522
	c0,15.947,12.928,28.875,28.875,28.875h293.985c15.947,0,28.875-12.928,28.875-28.875v-230.52
	C431.865,212.44,410.751,191.326,384.705,191.326L384.705,191.326z"/>
<path d="M327.335,205.176c-0.932,0-1.851-0.099-2.768-0.282c-0.904-0.169-1.793-0.452-2.639-0.805
	c-0.848-0.353-1.667-0.791-2.442-1.299c-0.762-0.507-1.482-1.1-2.132-1.751c-0.664-0.649-1.242-1.369-1.765-2.146
	c-0.508-0.762-0.946-1.581-1.299-2.442c-0.353-0.847-0.621-1.735-0.805-2.639c-0.184-0.905-0.282-1.837-0.282-2.753
	c0-0.918,0.099-1.851,0.282-2.753c0.184-0.902,0.452-1.793,0.805-2.64c0.353-0.861,0.791-1.679,1.299-2.441
	c0.522-0.778,1.101-1.498,1.765-2.147c0.649-0.649,1.369-1.242,2.132-1.751c0.776-0.522,1.595-0.946,2.442-1.299
	c0.847-0.353,1.735-0.635,2.639-0.819c1.821-0.367,3.699-0.367,5.52,0c0.905,0.184,1.794,0.466,2.64,0.819
	c0.848,0.353,1.667,0.776,2.442,1.299c0.762,0.508,1.496,1.101,2.146,1.751c0.649,0.649,1.242,1.369,1.751,2.147
	c0.508,0.762,0.946,1.58,1.299,2.441c0.353,0.848,0.621,1.736,0.805,2.64s0.267,1.835,0.267,2.753c0,0.916-0.085,1.849-0.267,2.753
	c-0.184,0.904-0.452,1.793-0.805,2.639c-0.353,0.861-0.791,1.68-1.299,2.442c-0.508,0.776-1.101,1.496-1.751,2.146
	c-0.649,0.651-1.382,1.244-2.146,1.751c-0.776,0.508-1.595,0.946-2.442,1.299c-0.847,0.353-1.735,0.635-2.64,0.805
	C329.17,205.078,328.251,205.176,327.335,205.176z"/>
<circle style="fill:#FFB085;" cx="255.994" cy="345.417" r="106.32"/>
<g>
	<circle style="fill:#C97767;" cx="174.945" cy="346.815" r="25.029"/>
	<circle style="fill:#C97767;" cx="249.712" cy="299.238" r="21.052"/>
</g>
<path d="M249.785,334.411c-1.282,0-2.572-0.069-3.864-0.209c-9.339-1.015-17.725-5.605-23.612-12.925
	c-5.887-7.321-8.571-16.496-7.557-25.835c1.014-9.34,5.605-17.726,12.926-23.612c7.32-5.887,16.492-8.574,25.835-7.557
	c9.34,1.015,17.725,5.605,23.612,12.925c0,0,0,0,0,0.001c5.887,7.321,8.569,16.497,7.557,25.834
	c-1.015,9.34-5.606,17.726-12.928,23.613C265.449,331.717,257.766,334.411,249.785,334.411z M249.72,292.304
	c-1.142,0-2.787,0.275-4.348,1.53c-1.948,1.566-2.432,3.589-2.548,4.655c-0.116,1.067-0.076,3.147,1.489,5.094
	c1.566,1.947,3.589,2.434,4.656,2.55c1.064,0.11,3.145,0.075,5.092-1.491c1.95-1.566,2.434-3.589,2.55-4.655
	c0.116-1.067,0.076-3.147-1.489-5.095c-1.566-1.947-3.589-2.432-4.656-2.548C250.254,292.322,250.003,292.304,249.72,292.304z"/>
<circle style="fill:#C97767;" cx="329.689" cy="337.681" r="21.052"/>
<path d="M398.823,178.85v-24.196c19.855-1.807,35.462-18.539,35.462-38.855V98.791c0-21.52-17.506-39.027-39.027-39.027h-91.526
	c0.788-3.511,1.207-7.132,1.207-10.824C304.94,21.954,282.984,0,255.999,0s-48.942,21.954-48.942,48.94
	c0,3.692,0.419,7.313,1.207,10.824h-91.526c-21.52,0-39.025,17.506-39.025,39.027v17.008c0,20.317,15.608,37.049,35.464,38.855
	v23.935c-27.006,6.421-47.16,30.84-47.16,59.898v230.522c0,23.705,19.286,42.991,42.993,42.991h293.984
	c23.706,0,42.993-19.286,42.993-42.991V238.487C445.983,209.556,425.83,185.241,398.823,178.85z M235.292,48.94
	c0-11.417,9.289-20.705,20.706-20.705c11.418,0,20.706,9.288,20.706,20.705c0,3.887-1.062,7.601-3.049,10.824h-35.314
	C236.354,56.541,235.292,52.827,235.292,48.94z M105.947,115.797V98.791c0-5.951,4.841-10.792,10.79-10.792h114.97h48.583h114.97
	c5.951,0,10.792,4.841,10.792,10.792v17.008c0,5.949-4.841,10.79-10.792,10.79h-10.556H127.292h-10.554
	C110.787,126.588,105.947,121.747,105.947,115.797z M417.748,469.009c0,8.137-6.62,14.756-14.757,14.756H109.007
	c-8.137,0-14.757-6.618-14.757-14.756V238.487c0-18.367,14.824-33.311,33.042-33.311l0,0l0,0h157.683
	c7.796,0,14.118-6.322,14.118-14.118c0-7.796-6.322-14.118-14.118-14.118H141.41v-22.118h229.178v36.503
	c0,7.796,6.322,14.118,14.118,14.118c18.219,0,33.042,14.824,33.042,33.042V469.009z"/>
<path d="M180.531,251.56c-51.75,41.615-59.997,117.571-18.384,169.322c20.157,25.069,48.873,40.787,80.852,44.26
	c4.427,0.48,8.84,0.719,13.231,0.719c27.323,0,53.639-9.226,75.237-26.595c25.069-20.157,40.787-48.871,44.26-80.852
	c3.473-31.981-5.716-63.4-25.875-88.468C308.238,218.193,232.279,209.947,180.531,251.56z M166.442,353.659
	c-3.769-4.689-3.023-11.569,1.666-15.34c2.012-1.618,4.426-2.403,6.826-2.403c3.193,0,6.361,1.391,8.514,4.069
	c3.769,4.688,3.023,11.569-1.666,15.34C177.093,359.091,170.213,358.349,166.442,353.659z M313.772,417.261
	c-19.192,15.433-43.238,22.467-67.727,19.809c-24.481-2.658-46.464-14.691-61.896-33.882c-4.379-5.447-8.012-11.253-10.961-17.284
	c0.597,0.027,1.196,0.049,1.794,0.049c8.61,0,17.276-2.821,24.493-8.623c16.823-13.526,19.504-38.215,5.976-55.038
	c-8.408-10.456-21.129-15.443-33.593-14.476c5.763-12.954,14.576-24.771,26.366-34.251c16.999-13.669,37.402-20.308,57.683-20.308
	c26.987,0,53.752,11.764,71.939,34.382c4.018,4.996,7.451,10.327,10.307,15.905c-1.525-0.376-3.082-0.659-4.669-0.832
	c-9.342-1.018-18.515,1.672-25.835,7.557c-7.321,5.887-11.913,14.272-12.925,23.613c-1.015,9.339,1.67,18.514,7.557,25.834
	c5.886,7.323,14.27,11.913,23.612,12.926c1.292,0.141,2.581,0.209,3.863,0.209c5.345,0,10.546-1.235,15.301-3.558
	C340.05,388.122,329.241,404.821,313.772,417.261z M336.584,338.425c-0.116,1.066-0.601,3.089-2.55,4.656
	c-1.948,1.567-4.029,1.598-5.094,1.491c-1.066-0.116-3.089-0.601-4.655-2.55s-1.607-4.029-1.491-5.094
	c0.116-1.067,0.601-3.089,2.55-4.656c1.56-1.256,3.206-1.53,4.347-1.53c0.282,0,0.535,0.018,0.747,0.04
	c1.066,0.116,3.089,0.601,4.655,2.548c0,0.001,0,0.001,0,0.001C336.66,335.278,336.699,337.357,336.584,338.425z"/>
<circle style="fill:#C97767;" cx="260.653" cy="384.777" r="24.647"/>
<path d="M260.691,423.527c-11.348,0-22.598-4.945-30.247-14.456c-13.395-16.657-10.739-41.105,5.917-54.5
	c16.659-13.395,41.106-10.736,54.5,5.917c13.393,16.657,10.739,41.105-5.917,54.5C277.799,420.735,269.217,423.527,260.691,423.527z
	 M260.643,374.255c-2.317,0-4.646,0.758-6.589,2.32c-4.523,3.638-5.245,10.279-1.607,14.802c3.638,4.526,10.279,5.245,14.802,1.608
	c4.525-3.638,5.246-10.279,1.608-14.802C266.78,375.598,263.724,374.255,260.643,374.255z"/>
</svg>