<?xml version="1.0" encoding="iso-8859-1"?>
<!-- Uploaded to: SVG Repo, www.svgrepo.com, Generator: SVG Repo Mixer Tools -->
<svg height="800px" width="800px" version="1.1" id="Layer_1" xmlns="http://www.w3.org/2000/svg" xmlns:xlink="http://www.w3.org/1999/xlink" 
	 viewBox="0 0 512 512" xml:space="preserve">
<g>
	<path style="fill:#7DA032;" d="M177.159,114.787l0.113,0.025c-8.776,34.787,2.908,145.945,0.667,190.212l-61.681-124.553
		l17.022-100.963L177.159,114.787z"/>
	<path style="fill:#7DA032;" d="M378.706,79.509l17.022,100.975l-33.129,90.966l-33.575,26.021
		c-2.254-44.268,14.466-147.858,5.678-182.646l0.126-0.038L378.706,79.509z"/>
</g>
<path style="fill:#F4DE3B;" d="M351.712,234.723v0.013L256,400.712l-95.725-165.988c2.241-44.268,8.222-85.124,16.997-119.911
	C194.823,45.3,223.542,0,255.987,0c32.458,0,61.177,45.3,78.715,114.825C343.491,149.612,349.459,190.455,351.712,234.723z"/>
<path style="fill:#E0C734;" d="M223.544,253.559c0-110.448,26.753-204.321,64.019-238.609C277.668,5.268,267.045,0,255.987,0
	c-32.446,0-61.164,45.3-78.715,114.812c-8.776,34.787-14.756,75.643-16.997,119.911l66.242,81.655
	C224.577,296.294,223.544,275.246,223.544,253.559z"/>
<path style="fill:#9AD14B;" d="M438.221,128.108l-135.7,351.966c-5.88,15.26-17.4,25.055-30.507,29.361
	c-23.456,7.743-52.024-2.04-62.549-29.361L73.779,128.108l42.48,52.364l44.016,54.252l16.77,20.661L256,352.721l95.712-117.985
	l44.016-54.252L438.221,128.108z"/>
<path style="fill:#90BC42;" d="M272.015,509.434c-23.456,7.743-52.024-2.04-62.549-29.361L73.779,128.108l42.48,52.364
	l44.016,54.252l16.77,20.661C191.058,345.293,220.142,479.003,272.015,509.434z"/>
<g>
	<circle style="fill:#C9AD27;" cx="235.013" cy="68.467" r="9.443"/>
	<circle style="fill:#C9AD27;" cx="235.013" cy="117.607" r="9.443"/>
	<circle style="fill:#C9AD27;" cx="235.013" cy="166.571" r="9.443"/>
	<circle style="fill:#C9AD27;" cx="235.013" cy="215.712" r="9.443"/>
	<circle style="fill:#C9AD27;" cx="235.013" cy="265.041" r="9.443"/>
	<circle style="fill:#C9AD27;" cx="199.671" cy="241.119" r="9.443"/>
	<circle style="fill:#C9AD27;" cx="199.671" cy="191.979" r="9.443"/>
	<circle style="fill:#C9AD27;" cx="199.671" cy="142.826" r="9.443"/>
	<circle style="fill:#C9AD27;" cx="271.827" cy="146.326" r="9.443"/>
	<circle style="fill:#C9AD27;" cx="271.827" cy="195.466" r="9.443"/>
	<circle style="fill:#C9AD27;" cx="271.827" cy="244.619" r="9.443"/>
	<circle style="fill:#C9AD27;" cx="271.827" cy="293.76" r="9.443"/>
</g>
</svg>