<?xml version="1.0" encoding="iso-8859-1"?>
<!-- Uploaded to: SVG Repo, www.svgrepo.com, Generator: SVG Repo Mixer Tools -->
<svg version="1.1" id="Layer_1" xmlns="http://www.w3.org/2000/svg" xmlns:xlink="http://www.w3.org/1999/xlink" 
	 viewBox="0 0 501.551 501.551" xml:space="preserve">
<rect x="132.702" y="76.278" style="fill:#F1543F;" width="237.192" height="21.943"/>
<path style="fill:#FF7058;" d="M364.669,0H136.882C115.984,0,98.22,16.718,98.22,38.661s16.718,38.661,38.661,38.661h227.788
	c20.898,0,38.661-16.718,38.661-38.661S385.567,0,364.669,0z"/>
<path style="fill:#40596B;" d="M474.384,373.029c-6.269,38.661-16.718,76.278-31.347,114.939
	c-3.135,8.359-11.494,13.584-20.898,13.584H79.412c-9.404,0-16.718-5.225-20.898-13.584
	c-14.629-38.661-25.078-76.278-31.347-114.939c-6.269-37.616-8.359-76.278-6.269-113.894c0-11.494,2.09-21.943,4.18-32.392
	c11.494-54.335,45.976-100.31,91.951-128.522h266.449c47.02,28.212,81.502,74.188,92.996,128.522
	c2.09,10.449,4.18,20.898,4.18,32.392C482.743,296.751,480.653,335.412,474.384,373.029z"/>
<path style="fill:#F2F2F2;" d="M474.384,373.029H354.22c-21.943,38.661-59.559,64.784-103.445,64.784s-82.547-26.122-103.445-64.784
	H27.167c-6.269-37.616-8.359-76.278-6.269-113.894c0-11.494,2.09-21.943,4.18-32.392h122.253
	c21.943-38.661,59.559-64.784,103.445-64.784s82.547,26.122,103.445,64.784h122.253c2.09,10.449,4.18,20.898,4.18,32.392
	C482.743,296.751,480.653,335.412,474.384,373.029z"/>
<path style="fill:#FF7058;" d="M307.2,306.155c0,31.347-49.11,75.233-56.424,75.233c-7.314,0-56.424-44.931-56.424-75.233
	c0-31.347,25.078-56.424,56.424-56.424S307.2,275.853,307.2,306.155z"/>
<path style="fill:#FFD15C;" d="M262.269,244.506c0-9.404-4.18-19.853-11.494-27.167c-7.314,7.314-11.494,17.763-11.494,27.167
	c-7.314-7.314-16.718-11.494-27.167-11.494c0,20.898,17.763,38.661,38.661,38.661s38.661-17.763,38.661-38.661
	C278.988,234.057,269.584,238.237,262.269,244.506z"/>
<g>
	<circle style="fill:#F1543F;" cx="215.249" cy="281.078" r="3.135"/>
	<circle style="fill:#F1543F;" cx="239.282" cy="281.078" r="3.135"/>
	<circle style="fill:#F1543F;" cx="262.269" cy="281.078" r="3.135"/>
	<circle style="fill:#F1543F;" cx="286.302" cy="281.078" r="3.135"/>
	<circle style="fill:#F1543F;" cx="227.788" cy="294.661" r="3.135"/>
	<circle style="fill:#F1543F;" cx="250.775" cy="294.661" r="3.135"/>
	<circle style="fill:#F1543F;" cx="273.763" cy="294.661" r="3.135"/>
	<circle style="fill:#F1543F;" cx="215.249" cy="306.155" r="3.135"/>
	<circle style="fill:#F1543F;" cx="239.282" cy="306.155" r="3.135"/>
	<circle style="fill:#F1543F;" cx="262.269" cy="306.155" r="3.135"/>
	<circle style="fill:#F1543F;" cx="286.302" cy="306.155" r="3.135"/>
	<circle style="fill:#F1543F;" cx="227.788" cy="319.739" r="3.135"/>
	<circle style="fill:#F1543F;" cx="250.775" cy="319.739" r="3.135"/>
	<circle style="fill:#F1543F;" cx="273.763" cy="319.739" r="3.135"/>
	<circle style="fill:#F1543F;" cx="215.249" cy="331.233" r="3.135"/>
	<circle style="fill:#F1543F;" cx="239.282" cy="331.233" r="3.135"/>
	<circle style="fill:#F1543F;" cx="262.269" cy="331.233" r="3.135"/>
	<circle style="fill:#F1543F;" cx="286.302" cy="331.233" r="3.135"/>
	<circle style="fill:#F1543F;" cx="227.788" cy="344.816" r="3.135"/>
	<circle style="fill:#F1543F;" cx="250.775" cy="344.816" r="3.135"/>
	<circle style="fill:#F1543F;" cx="273.763" cy="344.816" r="3.135"/>
</g>
</svg>