<?xml version="1.0" encoding="utf-8"?>
<!-- Uploaded to: SVG Repo, www.svgrepo.com, Generator: SVG Repo Mixer Tools -->
<!DOCTYPE svg PUBLIC "-//W3C//DTD SVG 1.1//EN" "http://www.w3.org/Graphics/SVG/1.1/DTD/svg11.dtd">
<svg xmlns="http://www.w3.org/2000/svg" xmlns:xlink="http://www.w3.org/1999/xlink" version="1.1" id="Layer_1"  width="512" height="512" viewBox="0 0 512 512" enable-background="new 0 0 512 512" xml:space="preserve">
<g id="ketchup">
	<g>
		<path fill="#F4F6F9" d="M362.67,255.992c0-42.663-53.358-127.936-53.358-127.936l0.031-128.052H202.579l0.188,127.935    c0,0-53.437,85.389-53.437,128.052s0,245.331,0,245.331c0,5.891,4.781,10.672,10.672,10.672h191.996    c5.891,0,10.672-4.781,10.672-10.672C362.67,501.323,362.67,298.655,362.67,255.992z"/>
	</g>
	<g>
		<path fill="#CBD0D8" d="M309.312,74.667h-25.141C276.655,68.05,266.797,64.027,256,64.027s-20.656,4.023-28.171,10.641h-25.125    v64.053h25.125c7.516,6.617,17.375,10.641,28.171,10.641s20.655-4.023,28.171-10.641h25.141V74.667z"/>
	</g>
	<path fill="#EC5564" d="M288.015,106.69c0,17.679-14.328,31.999-31.999,31.999c-17.687,0-32-14.32-32-31.999   c0-17.672,14.312-32,32-32C273.687,74.691,288.015,89.019,288.015,106.69z"/>
	<path fill="#EC5564" d="M149.33,255.992c0,42.663,0,245.331,0,245.331c0,5.891,4.781,10.672,10.672,10.672h191.996   c5.891,0,10.672-4.781,10.672-10.672c0,0,0-202.668,0-245.331c0-17.195-8.672-41.319-19.03-63.999H168.361   C158.018,214.681,149.33,238.805,149.33,255.992z"/>
	<path fill="#E5E8EC" d="M203.485,437.324l-10.391-106.67h24.156l-0.328-10.765c0.016-0.656,0.25-8.828,4.953-16.531   c6.203-10.203,17.703-15.359,34.156-15.359c16.468,0,27.968,5.156,34.171,15.359c4.688,7.719,4.938,15.875,4.938,16.531   l-0.312,10.937l10.984-0.172h13.109l-10.344,106.67H203.485z"/>
	<path fill="#CBD0D8" d="M305.812,319.998c0,0,0.594-42.67-49.78-42.67s-49.765,42.67-49.765,42.67H181.33l12.484,127.998h124.451   l12.406-127.998H305.812z M298.89,426.652h-85.717l-8.328-85.326h1.422l22.437,0.766l-1.109-22.218   c0.062-1.062,0.516-6.562,3.703-11.469c1.719-2.656,3.984-4.688,6.891-6.219c4.469-2.344,10.468-3.531,17.843-3.531   c7.391,0,13.39,1.188,17.858,3.531c2.906,1.531,5.156,3.562,6.891,6.219c3.172,4.906,3.641,10.406,3.688,11.469l-1.078,21.452   h22.422h1.359L298.89,426.652z"/>
	<path fill="#EC5564" d="M266.672,341.326c0,5.891-4.781,10.672-10.672,10.672s-10.672-4.781-10.672-10.672   s4.781-10.672,10.672-10.672S266.672,335.436,266.672,341.326z"/>
	<path fill="#424953" d="M287.999,383.998c0-5.891-4.781-10.672-10.672-10.672l0,0h-42.655l0,0l0,0   c-5.891,0-10.672,4.781-10.672,10.672s4.781,10.655,10.672,10.655l0,0l0,0h42.655l0,0   C283.218,394.653,287.999,389.889,287.999,383.998z"/>
	<path fill="#E5E8EC" d="M266.672,106.69c0,5.891-4.766,10.671-10.672,10.671c-5.891,0-10.656-4.781-10.656-10.671   S250.109,96.026,256,96.026C261.906,96.026,266.672,100.8,266.672,106.69z"/>
	<path fill="#D94452" d="M319.999,501.323c-5.891,0-10.672,4.781-10.672,10.672h21.344   C330.671,506.104,325.89,501.323,319.999,501.323z"/>
	<path fill="#D94452" d="M287.999,501.323c-5.891,0-10.672,4.781-10.672,10.672h21.344   C298.671,506.104,293.89,501.323,287.999,501.323z"/>
	<path fill="#D94452" d="M256,501.323c-5.891,0-10.672,4.781-10.672,10.672h21.344C266.672,506.104,261.891,501.323,256,501.323z"/>
	<path fill="#D94452" d="M224,501.323c-5.891,0-10.671,4.781-10.671,10.672h21.343C234.672,506.104,229.891,501.323,224,501.323z"/>
	<path fill="#D94452" d="M192.001,501.323c-5.89,0-10.671,4.781-10.671,10.672h21.343   C202.673,506.104,197.892,501.323,192.001,501.323z"/>
	<g opacity="0.2">
		<path fill="#FFFFFF" d="M309.312,128.057l0.031-128.052h-21.328l-0.031,128.052c0,0,53.344,85.272,53.344,127.936    s0,245.331,0,245.331c0,5.891-4.766,10.672-10.656,10.672h21.327c5.891,0,10.672-4.781,10.672-10.672c0,0,0-202.668,0-245.331    S309.312,128.057,309.312,128.057z"/>
	</g>
	<g>
		<path fill="#424953" d="M319.999,42.668c0,5.891-4.781,10.664-10.672,10.664H202.673c-5.891,0-10.672-4.773-10.672-10.664V10.669    c0-5.891,4.781-10.664,10.672-10.664h106.654c5.891,0,10.672,4.773,10.672,10.664V42.668z"/>
	</g>
</g>
</svg>