<?xml version="1.0" encoding="iso-8859-1"?>
<!-- Uploaded to: SVG Repo, www.svgrepo.com, Generator: SVG Repo Mixer Tools -->
<svg height="800px" width="800px" version="1.1" id="Layer_1" xmlns="http://www.w3.org/2000/svg" xmlns:xlink="http://www.w3.org/1999/xlink" 
	 viewBox="0 0 215.8 215.8" xml:space="preserve">
<g>
	<g>
		<circle style="fill:#93DDF5;" cx="107.9" cy="107.9" r="107.9"/>
		<g>
			<path style="fill:#688F39;" d="M111.739,70.145c-0.052,1.237-1.098,2.197-2.335,2.145l0,0c-1.237-0.052-2.197-1.098-2.145-2.334
				l0.384-9.084c0.052-1.237,1.097-2.197,2.334-2.145l0,0c1.237,0.052,2.198,1.097,2.146,2.334L111.739,70.145z"/>
			<path style="fill:#8CB060;" d="M111.062,62.546c0,0,16.108,2.378,21.558-1.543s7.917-8.724,7.748-13.638
				c0,0-8.888,4.908-17.546,4.354c0,0,5.617-7.878,6.718-11.605c0,0-8.676,4.352-22.658,9.234c0,0-4.508-9.438-9.896-15.893
				c0,0-3.271,10.43-6.758,12.547c0,0-8.655-5.083-13.211-13.391c0,0-2.833,13.468,3.402,22.223
				C86.653,63.591,111.062,62.546,111.062,62.546z"/>
			<path style="fill:#FE6267;" d="M105.43,67.592c-8.999-0.091-23.126,2.421-34.081,11.582c-10.955,9.162-8.462,30.592-5.926,42.021
				c2.537,11.43,7.968,25.813,12.078,31.27c4.11,5.458,10.57,17.809,14.408,20.801c3.836,2.993,5.898,7.798,16.997,8.644
				c11.098,0.846,18.575-6.386,26.322-20.024s17.587-36.623,17.637-55.681c0.05-19.059-9.229-31.716-21.558-34.691
				C118.978,68.542,111.655,67.655,105.43,67.592z"/>
			<path style="fill:#F3E27C;" d="M138.841,84.478c0,0,1.017,1.93-0.136,3.203c-1.152,1.272-2.792-0.117-2.725-1.719
				C136.048,84.36,137.496,84.233,138.841,84.478z"/>
			<path style="fill:#F3E27C;" d="M115.349,79.35c0,0,1.826,1.191,1.438,2.864c-0.388,1.672-2.497,1.254-3.216-0.178
				C112.851,80.603,114.054,79.788,115.349,79.35z"/>
			<path style="fill:#F3E27C;" d="M91.086,77.388c0,0,1.827,1.191,1.438,2.864c-0.389,1.672-2.497,1.254-3.216-0.178
				C88.588,78.642,89.791,77.827,91.086,77.388z"/>
			<path style="fill:#F3E27C;" d="M76.411,86.946c0,0-0.308,2.159-1.988,2.515c-1.679,0.354-2.192-1.732-1.198-2.991
				C74.219,85.213,75.466,85.959,76.411,86.946z"/>
			<path style="fill:#F3E27C;" d="M81.469,94.767c0,0,1.585,1.498,0.906,3.075c-0.68,1.576-2.681,0.791-3.134-0.748
				C78.789,95.557,80.117,94.969,81.469,94.767z"/>
			<path style="fill:#F3E27C;" d="M99.396,91.574c0,0,1.586,1.498,0.906,3.075c-0.679,1.576-2.681,0.79-3.134-0.748
				C96.715,92.363,98.044,91.776,99.396,91.574z"/>
			<path style="fill:#F3E27C;" d="M91.825,110.36c0,0,1.585,1.498,0.906,3.075c-0.679,1.576-2.68,0.791-3.134-0.748
				C89.145,111.149,90.473,110.562,91.825,110.36z"/>
			<path style="fill:#F3E27C;" d="M120.313,161.396c0,0,1.585,1.498,0.905,3.075c-0.679,1.576-2.681,0.79-3.133-0.748
				C117.632,162.186,118.961,161.598,120.313,161.396z"/>
			<path style="fill:#F3E27C;" d="M123.017,97.374c0,0,1.585,1.498,0.905,3.075c-0.679,1.576-2.68,0.79-3.133-0.748
				C120.336,98.164,121.664,97.576,123.017,97.374z"/>
			<path style="fill:#F3E27C;" d="M108.829,118.144c0,0-1.245-1.791-0.256-3.195c0.988-1.403,2.786-0.224,2.913,1.374
				C111.614,117.92,110.193,118.224,108.829,118.144z"/>
			<path style="fill:#F3E27C;" d="M119.644,142.337c0,0-1.245-1.791-0.257-3.195c0.988-1.403,2.786-0.224,2.914,1.374
				C122.429,142.113,121.008,142.417,119.644,142.337z"/>
			<path style="fill:#F3E27C;" d="M129.021,115.988c0,0,0.912,1.982-0.308,3.191c-1.218,1.208-2.782-0.269-2.627-1.864
				S127.692,115.671,129.021,115.988z"/>
			<path style="fill:#F3E27C;" d="M92.532,150.842c0,0,0.912,1.982-0.308,3.19c-1.219,1.208-2.782-0.268-2.627-1.864
				C89.751,150.573,91.203,150.524,92.532,150.842z"/>
			<path style="fill:#F3E27C;" d="M134.882,128.985c0,0,2.172,0.201,2.61,1.862c0.437,1.659-1.623,2.275-2.928,1.345
				C133.259,131.26,133.943,129.978,134.882,128.985z"/>
			<path style="fill:#F3E27C;" d="M83.82,131.519c0,0,1.301,1.751,0.357,3.186c-0.942,1.434-2.777,0.312-2.955-1.28
				C81.043,131.831,82.453,131.483,83.82,131.519z"/>
			<path style="fill:#F3E27C;" d="M142.742,106.895c0,0,1.585,1.498,0.906,3.075c-0.679,1.576-2.681,0.79-3.133-0.748
				C140.061,107.684,141.39,107.097,142.742,106.895z"/>
			<path style="fill:#F3E27C;" d="M100.601,163.278c0,0,2.043-0.764,3.159,0.541c1.115,1.304-0.472,2.754-2.051,2.484
				C100.129,166.032,100.186,164.581,100.601,163.278z"/>
			<path style="fill:#F3E27C;" d="M73.794,114.762c0,0-1.236,1.797-2.898,1.369c-1.662-0.428-1.194-2.527,0.256-3.212
				C72.601,112.234,73.387,113.457,73.794,114.762z"/>
			<path style="fill:#F3E27C;" d="M105.276,138.265c0,0-1.235,1.797-2.898,1.369c-1.662-0.429-1.194-2.527,0.256-3.212
				C104.082,135.738,104.869,136.96,105.276,138.265z"/>
		</g>
	</g>
</g>
</svg>